<?xml version="1.0" encoding="UTF-8" standalone="no"?>
<!-- Created with Inkscape (http://www.inkscape.org/) -->

<svg
   xmlns:dc="http://purl.org/dc/elements/1.1/"
   xmlns:cc="http://creativecommons.org/ns#"
   xmlns:rdf="http://www.w3.org/1999/02/22-rdf-syntax-ns#"
   xmlns:svg="http://www.w3.org/2000/svg"
   xmlns="http://www.w3.org/2000/svg"
   xmlns:sodipodi="http://sodipodi.sourceforge.net/DTD/sodipodi-0.dtd"
   xmlns:inkscape="http://www.inkscape.org/namespaces/inkscape"
   version="1.1"
   id="svg2"
   xml:space="preserve"
   width="331.10666"
   height="200.28"
   viewBox="0 0 331.10666 200.28"
   sodipodi:docname="ea.svg"
   inkscape:version="0.92.2 2405546, 2018-03-11"><metadata
     id="metadata8"><rdf:RDF><cc:Work
         rdf:about=""><dc:format>image/svg+xml</dc:format><dc:type
           rdf:resource="http://purl.org/dc/dcmitype/StillImage" /><dc:title></dc:title></cc:Work></rdf:RDF></metadata><defs
     id="defs6" /><sodipodi:namedview
     pagecolor="#ffffff"
     bordercolor="#666666"
     borderopacity="1"
     objecttolerance="10"
     gridtolerance="10"
     guidetolerance="10"
     inkscape:pageopacity="0"
     inkscape:pageshadow="2"
     inkscape:window-width="1920"
     inkscape:window-height="983"
     id="namedview4"
     showgrid="false"
     inkscape:zoom="2.1503645"
     inkscape:cx="171.33897"
     inkscape:cy="131.11253"
     inkscape:window-x="0"
     inkscape:window-y="27"
     inkscape:window-maximized="1"
     inkscape:current-layer="g10" /><g
     id="g10"
     inkscape:groupmode="layer"
     inkscape:label="ink_ext_XXXXXX"
     transform="matrix(1.3333333,0,0,-1.3333333,0,200.28)"><path
       inkscape:connector-curvature="0"
       id="path14"
       style="fill:#738d0e;fill-opacity:1;fill-rule:nonzero;stroke:none;stroke-width:0.1"
       d="M 248.334,0 188.866,13.8672 H 0 L 33.3203,150.207 170.346,137.629 h 46.832 L 248.334,0" /><path
       inkscape:connector-curvature="0"
       id="path16"
       style="fill:#ffffff;fill-opacity:1;fill-rule:nonzero;stroke:none;stroke-width:0.1"
       d="M 60.8008,114.497 V 97.3094 h 31.25 v -9.3258 h -31.25 V 69.1355 H 94.0527 V 58.4914 H 48.1543 v 66.6506 h 45.6055 v -10.645 h -32.959" /><path
       inkscape:connector-curvature="0"
       id="path18"
       style="fill:#ffffff;fill-opacity:1;fill-rule:nonzero;stroke:none;stroke-width:0.1"
       d="m 112.051,90.7508 c -2.877,-0.6309 -4.653,-1.368 -5.33,-2.2117 -0.678,-0.845 -1.016,-2.7414 -1.016,-5.6926 0,-3.859 0.561,-6.2195 1.684,-7.0828 1.122,-0.8625 4.216,-1.2942 9.282,-1.2942 6.067,0 9.472,1.3547 10.214,4.0637 z m 15.641,-2.7266 h 4.231 l 0.028,-1.0019 0.028,-1.9207 c 0,-2.0223 -0.149,-3.8223 -0.446,-5.3996 l 6.653,-5.4825 -2.338,-2.9781 -5.623,4.6481 c -1.577,-3.3594 -5.827,-5.0379 -12.747,-5.0379 -6.68,0 -10.994,0.7422 -12.942,2.2265 -1.948,1.4844 -2.922,4.7774 -2.922,9.8801 0,3.3582 0.449,5.7059 1.35,7.0418 0.899,1.3359 2.658,2.2723 5.274,2.8113 0.241,0.0547 0.621,0.1391 1.141,0.25 -2.301,1.9297 -3.451,4.1469 -3.451,6.6524 0,3.5433 0.793,5.9603 2.38,7.2503 1.586,1.289 4.559,1.933 8.92,1.933 4.267,0 7.18,-0.63 8.739,-1.892 1.558,-1.262 2.338,-3.617 2.338,-7.0687 l -0.056,-2.366 h -4.202 v 1.4188 c 0,2.8199 -0.381,4.5739 -1.142,5.2609 -0.76,0.686 -2.709,1.03 -5.844,1.03 -2.839,0 -4.723,-0.307 -5.65,-0.919 -0.929,-0.612 -1.392,-1.855 -1.392,-3.729 0,-2.1152 0.807,-3.8039 2.421,-5.0656 l 0.947,-0.7793 14.305,-11.9121 v 0.7793 1.5586 1.948 0.8633" /><path
       inkscape:connector-curvature="0"
       id="path20"
       style="fill:#ffffff;fill-opacity:1;fill-rule:nonzero;stroke:none;stroke-width:0.1"
       d="M 183.781,80.6102 172.258,115.327 160.93,80.6102 Z m 2.93,-9.3262 h -28.76 l -4.15,-12.7926 h -13.379 l 22.168,66.6506 h 18.994 l 22.51,-66.6506 h -13.135 l -4.248,12.7926" /><path
       inkscape:connector-curvature="0"
       id="path22"
       style="fill:#ffffff;fill-opacity:1;fill-rule:nonzero;stroke:none;stroke-width:0.1"
       d="m 52.1895,46.2441 -0.0071,0.2598 c 0,0.5191 -0.0894,0.8563 -0.2699,1.0121 -0.1801,0.1551 -0.5707,0.232 -1.1723,0.232 -0.5836,0 -0.9629,-0.0941 -1.1382,-0.28 -0.175,-0.1871 -0.2629,-0.595 -0.2629,-1.2239 z m -0.0137,-1.8519 h 1.5722 v -0.2531 c 0,-1.277 -0.957,-1.9141 -2.871,-1.9141 -1.2989,0 -2.1489,0.2199 -2.55,0.6629 -0.4008,0.4422 -0.6012,1.3793 -0.6012,2.809 0,1.2722 0.2094,2.1261 0.6289,2.564 0.4191,0.4371 1.2371,0.6563 2.4539,0.6563 1.1664,0 1.948,-0.2133 2.3445,-0.6391 0.3965,-0.4261 0.5949,-1.2633 0.5949,-2.5121 V 45.2871 H 49.3254 C 49.316,45.1422 49.3113,45.0461 49.3113,45 c 0,-0.643 0.0992,-1.0711 0.2977,-1.2852 0.198,-0.2136 0.5937,-0.3207 1.1859,-0.3207 0.5742,0 0.9477,0.0618 1.1211,0.1868 0.1735,0.1261 0.2598,0.3961 0.2598,0.8113" /><path
       inkscape:connector-curvature="0"
       id="path24"
       style="fill:#ffffff;fill-opacity:1;fill-rule:nonzero;stroke:none;stroke-width:0.1"
       d="m 54.9922,48.8352 h 1.5516 l -0.0614,-1.1012 0.0344,-0.0059 c 0.3051,0.7879 0.9887,1.1821 2.0508,1.1821 1.5445,0 2.3172,-0.7204 2.3172,-2.1602 V 42.3 h -1.5657 v 3.9371 0.2461 l -0.0339,0.4578 c -0.0727,0.4879 -0.4555,0.732 -1.1485,0.732 -1.0527,0 -1.5793,-0.4992 -1.5793,-1.4968 V 42.3 h -1.5652 v 6.5352" /><path
       inkscape:connector-curvature="0"
       id="path26"
       style="fill:#ffffff;fill-opacity:1;fill-rule:nonzero;stroke:none;stroke-width:0.1"
       d="m 66.5719,46.2441 -0.0071,0.2598 c 0,0.5191 -0.0898,0.8563 -0.2699,1.0121 -0.1801,0.1551 -0.5707,0.232 -1.1722,0.232 -0.5836,0 -0.9629,-0.0941 -1.1383,-0.28 -0.1754,-0.1871 -0.2633,-0.595 -0.2633,-1.2239 z m -0.0137,-1.8519 h 1.5723 v -0.2531 c 0,-1.277 -0.9571,-1.9141 -2.8711,-1.9141 -1.2989,0 -2.1489,0.2199 -2.55,0.6629 -0.4008,0.4422 -0.6016,1.3793 -0.6016,2.809 0,1.2722 0.2098,2.1261 0.6289,2.564 0.4196,0.4371 1.2375,0.6563 2.4543,0.6563 1.1664,0 1.9481,-0.2133 2.3445,-0.6391 0.3965,-0.4261 0.595,-1.2633 0.595,-2.5121 V 45.2871 H 63.7074 C 63.698,45.1422 63.6938,45.0461 63.6938,45 c 0,-0.643 0.0992,-1.0711 0.2972,-1.2852 0.1985,-0.2136 0.5942,-0.3207 1.1863,-0.3207 0.5743,0 0.9477,0.0618 1.1211,0.1868 0.1735,0.1261 0.2598,0.3961 0.2598,0.8113" /><path
       inkscape:connector-curvature="0"
       id="path28"
       style="fill:#ffffff;fill-opacity:1;fill-rule:nonzero;stroke:none;stroke-width:0.1"
       d="m 69.3945,48.8352 h 1.5657 l -0.0957,-0.9161 0.0339,-0.007 c 0.3735,0.684 0.9614,1.025 1.7637,1.025 1.1484,0 1.7227,-0.7242 1.7227,-2.173 v -0.4582 h -1.4766 c 0.018,0.1773 0.0273,0.2941 0.0273,0.348 0,0.6981 -0.271,1.0461 -0.8132,1.0461 -0.775,0 -1.1621,-0.5168 -1.1621,-1.552 V 42.3 h -1.5657 v 6.5352" /><path
       inkscape:connector-curvature="0"
       id="path30"
       style="fill:#ffffff;fill-opacity:1;fill-rule:nonzero;stroke:none;stroke-width:0.1"
       d="m 78.223,47.673 c -0.6015,0 -0.9875,-0.1218 -1.1585,-0.3648 -0.1707,-0.2453 -0.2563,-0.7992 -0.2563,-1.6652 0,-0.9211 0.0856,-1.509 0.2563,-1.7641 0.171,-0.2551 0.564,-0.3828 1.1793,-0.3828 0.6152,0 1.014,0.1309 1.196,0.3937 0.1825,0.2614 0.2735,0.8411 0.2735,1.7391 0,0.8609 -0.091,1.4172 -0.2735,1.668 -0.182,0.2511 -0.5878,0.3761 -1.2168,0.3761 z m 3.0833,1.1622 V 42.177 c 0,-1.0668 -0.2157,-1.7981 -0.6461,-2.195 -0.4305,-0.3961 -1.2247,-0.5941 -2.3825,-0.5941 -1.1211,0 -1.8707,0.15 -2.2488,0.4512 -0.3785,0.3007 -0.5676,0.8949 -0.5676,1.7839 h 1.5176 c 0,-0.4242 0.0797,-0.696 0.2395,-0.8171 0.1593,-0.12 0.5152,-0.1809 1.0664,-0.1809 0.9707,0 1.4558,0.4012 1.4558,1.2031 v 1.4699 l -0.034,0.0071 c -0.2781,-0.6981 -0.916,-1.0461 -1.914,-1.0461 -0.9891,0 -1.6649,0.239 -2.027,0.718 -0.3625,0.4781 -0.5433,1.3718 -0.5433,2.6789 0,1.2312 0.1808,2.08 0.5433,2.55 0.3621,0.4703 1.0196,0.7043 1.9723,0.7043 1.0391,0 1.7199,-0.3852 2.0437,-1.1551 h 0.0344 l -0.0754,1.0801 h 1.5657" /><path
       inkscape:connector-curvature="0"
       id="path32"
       style="fill:#ffffff;fill-opacity:1;fill-rule:nonzero;stroke:none;stroke-width:0.1"
       d="M 84.2992,48.8352 V 42.3 H 82.734 v 6.5352 z m 0,2.7957 V 50.3254 H 82.734 v 1.3055 h 1.5652" /><path
       inkscape:connector-curvature="0"
       id="path34"
       style="fill:#ffffff;fill-opacity:1;fill-rule:nonzero;stroke:none;stroke-width:0.1"
       d="m 90.0043,46.2441 -0.0066,0.2598 c 0,0.5191 -0.0899,0.8563 -0.2704,1.0121 -0.18,0.1551 -0.5707,0.232 -1.1722,0.232 -0.5832,0 -0.9629,-0.0941 -1.1379,-0.28 -0.1754,-0.1871 -0.2633,-0.595 -0.2633,-1.2239 z m -0.0137,-1.8519 h 1.5723 v -0.2531 c 0,-1.277 -0.957,-1.9141 -2.8711,-1.9141 -1.2988,0 -2.1488,0.2199 -2.5496,0.6629 -0.4012,0.4422 -0.6016,1.3793 -0.6016,2.809 0,1.2722 0.2094,2.1261 0.6289,2.564 0.4196,0.4371 1.2371,0.6563 2.4539,0.6563 1.1664,0 1.9485,-0.2133 2.345,-0.6391 0.3964,-0.4261 0.5945,-1.2633 0.5945,-2.5121 V 45.2871 H 87.1402 C 87.1309,45.1422 87.1266,45.0461 87.1266,45 c 0,-0.643 0.0992,-1.0711 0.2972,-1.2852 0.1985,-0.2136 0.5938,-0.3207 1.186,-0.3207 0.5742,0 0.9476,0.0618 1.1211,0.1868 0.1734,0.1261 0.2597,0.3961 0.2597,0.8113" /><path
       inkscape:connector-curvature="0"
       id="path36"
       style="fill:#ffffff;fill-opacity:1;fill-rule:nonzero;stroke:none;stroke-width:0.1"
       d="m 100.593,46.2441 -0.007,0.2598 c 0,0.5191 -0.089,0.8563 -0.27,1.0121 -0.18,0.1551 -0.5703,0.232 -1.1719,0.232 -0.5836,0 -0.9628,-0.0941 -1.1382,-0.28 -0.1754,-0.1871 -0.2633,-0.595 -0.2633,-1.2239 z m -0.013,-1.8519 h 1.572 v -0.2531 c 0,-1.277 -0.957,-1.9141 -2.8711,-1.9141 -1.2989,0 -2.1493,0.2199 -2.55,0.6629 -0.4008,0.4422 -0.6016,1.3793 -0.6016,2.809 0,1.2722 0.2098,2.1261 0.6289,2.564 0.4195,0.4371 1.2375,0.6563 2.4543,0.6563 1.1665,0 1.9485,-0.2133 2.3445,-0.6391 0.397,-0.4261 0.595,-1.2633 0.595,-2.5121 V 45.2871 H 97.7289 C 97.7195,45.1422 97.7152,45.0461 97.7152,45 c 0,-0.643 0.0993,-1.0711 0.2977,-1.2852 0.198,-0.2136 0.5934,-0.3207 1.1859,-0.3207 0.5742,0 0.9472,0.0618 1.1212,0.1868 0.173,0.1261 0.26,0.3961 0.26,0.8113" /><path
       inkscape:connector-curvature="0"
       id="path38"
       style="fill:#ffffff;fill-opacity:1;fill-rule:nonzero;stroke:none;stroke-width:0.1"
       d="m 103.396,48.8352 h 1.552 l -0.062,-1.1012 0.034,-0.0059 c 0.306,0.7879 0.989,1.1821 2.051,1.1821 1.545,0 2.318,-0.7204 2.318,-2.1602 V 42.3 h -1.566 v 3.9371 0.2461 l -0.034,0.4578 c -0.073,0.4879 -0.456,0.732 -1.148,0.732 -1.053,0 -1.58,-0.4992 -1.58,-1.4968 V 42.3 h -1.565 v 6.5352" /><path
       inkscape:connector-curvature="0"
       id="path40"
       style="fill:#ffffff;fill-opacity:1;fill-rule:nonzero;stroke:none;stroke-width:0.1"
       d="m 116.993,45.2262 c -0.885,0 -1.326,-0.3063 -1.326,-0.916 0,-0.4243 0.091,-0.7032 0.273,-0.834 0.182,-0.1321 0.565,-0.1992 1.148,-0.1992 0.953,0 1.429,0.3218 1.429,0.964 0,0.6559 -0.508,0.9852 -1.524,0.9852 z m -1.046,1.7148 h -1.6 c 0,0.7852 0.182,1.3078 0.547,1.5731 0.365,0.264 1.087,0.3961 2.167,0.3961 1.176,0 1.971,-0.1622 2.386,-0.4852 0.414,-0.323 0.622,-0.9418 0.622,-1.8531 V 42.3 h -1.566 l 0.076,0.8949 -0.041,0.0071 c -0.301,-0.6508 -0.996,-0.977 -2.085,-0.977 -1.582,0 -2.372,0.6711 -2.372,2.016 0,1.359 0.809,2.0371 2.426,2.0371 1.08,0 1.737,-0.248 1.969,-0.7449 h 0.027 v 1.0598 c 0,0.5101 -0.088,0.848 -0.266,1.0152 -0.178,0.1656 -0.543,0.2488 -1.094,0.2488 -0.797,0 -1.196,-0.305 -1.196,-0.916" /><path
       inkscape:connector-curvature="0"
       id="path42"
       style="fill:#ffffff;fill-opacity:1;fill-rule:nonzero;stroke:none;stroke-width:0.1"
       d="M 127.29,48.8352 V 42.3 h -1.565 l 0.088,1.1211 -0.027,0.007 c -0.306,-0.8019 -1.007,-1.2031 -2.105,-1.2031 -1.482,0 -2.222,0.7398 -2.222,2.2211 v 4.3891 h 1.565 v -4.0133 c 0,-0.5547 0.078,-0.9219 0.233,-1.0957 0.155,-0.1762 0.475,-0.2641 0.964,-0.2641 1.002,0 1.504,0.6008 1.504,1.8051 v 3.568 h 1.565" /><path
       inkscape:connector-curvature="0"
       id="path44"
       style="fill:#ffffff;fill-opacity:1;fill-rule:nonzero;stroke:none;stroke-width:0.1"
       d="m 133.179,48.8352 v -1.1903 h -2.516 v -3.2808 c 0,-0.6059 0.23,-0.909 0.691,-0.909 0.505,0 0.758,0.3668 0.758,1.1008 v 0.2589 h 1.333 v -0.3277 c 0,-0.3012 -0.009,-0.5582 -0.027,-0.7723 -0.086,-0.9976 -0.83,-1.4968 -2.229,-1.4968 -1.394,0 -2.091,0.6402 -2.091,1.9211 v 3.5058 h -0.848 v 1.1903 h 0.848 v 1.4625 h 1.565 v -1.4625 h 2.516" /><path
       inkscape:connector-curvature="0"
       id="path46"
       style="fill:#ffffff;fill-opacity:1;fill-rule:nonzero;stroke:none;stroke-width:0.1"
       d="m 137.369,47.673 c -0.652,0 -1.066,-0.1171 -1.244,-0.3519 -0.178,-0.2352 -0.268,-0.7832 -0.268,-1.6441 0,-0.9848 0.085,-1.6 0.254,-1.8461 0.168,-0.2457 0.59,-0.3688 1.264,-0.3688 0.652,0 1.063,0.1301 1.234,0.3899 0.171,0.2589 0.256,0.8832 0.256,1.873 0,0.834 -0.088,1.3672 -0.265,1.5988 -0.178,0.2332 -0.588,0.3492 -1.231,0.3492 z m 0.014,1.2372 c 1.262,0 2.089,-0.202 2.48,-0.6043 0.393,-0.4047 0.588,-1.2547 0.588,-2.5539 0,-1.4489 -0.191,-2.3989 -0.574,-2.8508 -0.383,-0.4512 -1.189,-0.6762 -2.42,-0.6762 -1.335,0 -2.199,0.2102 -2.594,0.6281 -0.394,0.4188 -0.592,1.3418 -0.592,2.7688 0,1.3722 0.195,2.2633 0.583,2.673 0.386,0.4102 1.23,0.6153 2.529,0.6153" /><path
       inkscape:connector-curvature="0"
       id="path48"
       style="fill:#ffffff;fill-opacity:1;fill-rule:nonzero;stroke:none;stroke-width:0.1"
       d="m 141.694,48.8352 h 1.566 l -0.041,-1.0051 0.034,-0.0071 c 0.319,0.725 0.984,1.0872 1.996,1.0872 1.181,0 1.837,-0.4032 1.969,-1.2102 h 0.027 c 0.306,0.807 0.978,1.2102 2.017,1.2102 1.513,0 2.269,-0.7614 2.269,-2.2832 V 42.3 h -1.565 v 3.9852 c 0,0.925 -0.38,1.3878 -1.142,1.3878 -0.953,0 -1.428,-0.5179 -1.428,-1.5519 V 42.3 h -1.566 v 4.0469 c 0,0.5422 -0.072,0.898 -0.215,1.0703 -0.144,0.1699 -0.448,0.2558 -0.913,0.2558 -0.962,0 -1.442,-0.5289 -1.442,-1.5859 V 42.3 h -1.566 v 6.5352" /><path
       inkscape:connector-curvature="0"
       id="path50"
       style="fill:#ffffff;fill-opacity:1;fill-rule:nonzero;stroke:none;stroke-width:0.1"
       d="m 155.643,45.2262 c -0.885,0 -1.327,-0.3063 -1.327,-0.916 0,-0.4243 0.092,-0.7032 0.274,-0.834 0.181,-0.1321 0.564,-0.1992 1.148,-0.1992 0.953,0 1.429,0.3218 1.429,0.964 0,0.6559 -0.509,0.9852 -1.524,0.9852 z m -1.046,1.7148 h -1.6 c 0,0.7852 0.183,1.3078 0.547,1.5731 0.364,0.264 1.087,0.3961 2.167,0.3961 1.176,0 1.971,-0.1622 2.386,-0.4852 0.415,-0.323 0.622,-0.9418 0.622,-1.8531 V 42.3 h -1.566 l 0.076,0.8949 -0.041,0.0071 c -0.301,-0.6508 -0.997,-0.977 -2.085,-0.977 -1.582,0 -2.373,0.6711 -2.373,2.016 0,1.359 0.809,2.0371 2.427,2.0371 1.08,0 1.737,-0.248 1.969,-0.7449 h 0.027 v 1.0598 c 0,0.5101 -0.089,0.848 -0.266,1.0152 -0.178,0.1656 -0.543,0.2488 -1.094,0.2488 -0.797,0 -1.196,-0.305 -1.196,-0.916" /><path
       inkscape:connector-curvature="0"
       id="path52"
       style="fill:#ffffff;fill-opacity:1;fill-rule:nonzero;stroke:none;stroke-width:0.1"
       d="m 164.553,48.8352 v -1.1903 h -2.516 v -3.2808 c 0,-0.6059 0.231,-0.909 0.691,-0.909 0.505,0 0.758,0.3668 0.758,1.1008 v 0.2589 h 1.333 v -0.3277 c 0,-0.3012 -0.008,-0.5582 -0.027,-0.7723 -0.087,-0.9976 -0.829,-1.4968 -2.229,-1.4968 -1.394,0 -2.091,0.6402 -2.091,1.9211 v 3.5058 h -0.848 v 1.1903 h 0.848 v 1.4625 h 1.565 v -1.4625 h 2.516" /><path
       inkscape:connector-curvature="0"
       id="path54"
       style="fill:#ffffff;fill-opacity:1;fill-rule:nonzero;stroke:none;stroke-width:0.1"
       d="M 167.338,48.8352 V 42.3 h -1.565 v 6.5352 z m 0,2.7957 v -1.3055 h -1.565 v 1.3055 h 1.565" /><path
       inkscape:connector-curvature="0"
       id="path56"
       style="fill:#ffffff;fill-opacity:1;fill-rule:nonzero;stroke:none;stroke-width:0.1"
       d="m 174.283,47.0371 h -1.531 c -0.01,0.0551 -0.017,0.0961 -0.022,0.1231 -0.031,0.3148 -0.121,0.5109 -0.269,0.5878 -0.148,0.077 -0.507,0.1161 -1.076,0.1161 -0.817,0 -1.225,-0.2641 -1.225,-0.793 0,-0.3602 0.072,-0.5742 0.216,-0.6422 0.144,-0.0687 0.63,-0.123 1.46,-0.1641 1.116,-0.0546 1.843,-0.2039 2.18,-0.4449 0.338,-0.241 0.505,-0.7359 0.505,-1.4828 0,-0.798 -0.224,-1.35 -0.672,-1.6582 -0.449,-0.307 -1.255,-0.4609 -2.417,-0.4609 -1.117,0 -1.879,0.1379 -2.289,0.4172 -0.411,0.2777 -0.616,0.798 -0.616,1.5578 v 0.164 h 1.627 c -0.023,-0.0898 -0.037,-0.164 -0.041,-0.2179 -0.064,-0.5789 0.383,-0.8692 1.34,-0.8692 0.988,0 1.483,0.2883 1.483,0.8621 0,0.552 -0.31,0.827 -0.93,0.827 -1.399,0 -2.32,0.132 -2.765,0.3961 -0.444,0.2648 -0.667,0.814 -0.667,1.648 0,0.7469 0.203,1.2528 0.61,1.5168 0.405,0.2653 1.184,0.3973 2.337,0.3973 1.089,0 1.822,-0.1281 2.198,-0.3832 0.376,-0.2551 0.564,-0.7539 0.564,-1.4969" /><path
       inkscape:connector-curvature="0"
       id="path58"
       style="fill:#ffffff;fill-opacity:1;fill-rule:nonzero;stroke:none;stroke-width:0.1"
       d="m 179.986,46.2441 -0.006,0.2598 c 0,0.5191 -0.089,0.8563 -0.27,1.0121 -0.181,0.1551 -0.571,0.232 -1.173,0.232 -0.583,0 -0.963,-0.0941 -1.138,-0.28 -0.174,-0.1871 -0.262,-0.595 -0.262,-1.2239 z m -0.013,-1.8519 h 1.572 v -0.2531 c 0,-1.277 -0.957,-1.9141 -2.871,-1.9141 -1.299,0 -2.149,0.2199 -2.549,0.6629 -0.401,0.4422 -0.602,1.3793 -0.602,2.809 0,1.2722 0.209,2.1261 0.629,2.564 0.419,0.4371 1.237,0.6563 2.453,0.6563 1.167,0 1.95,-0.2133 2.346,-0.6391 0.397,-0.4261 0.594,-1.2633 0.594,-2.5121 v -0.4789 h -4.422 c -0.01,-0.1449 -0.014,-0.241 -0.014,-0.2871 0,-0.643 0.099,-1.0711 0.297,-1.2852 0.198,-0.2136 0.594,-0.3207 1.186,-0.3207 0.574,0 0.948,0.0618 1.121,0.1868 0.174,0.1261 0.26,0.3961 0.26,0.8113" /><path
       inkscape:connector-curvature="0"
       id="path60"
       style="fill:#ffffff;fill-opacity:1;fill-rule:nonzero;stroke:none;stroke-width:0.1"
       d="m 182.81,48.8352 h 1.565 l -0.096,-0.9161 0.034,-0.007 c 0.375,0.684 0.962,1.025 1.764,1.025 1.149,0 1.723,-0.7242 1.723,-2.173 v -0.4582 h -1.477 c 0.019,0.1773 0.028,0.2941 0.028,0.348 0,0.6981 -0.271,1.0461 -0.814,1.0461 -0.775,0 -1.162,-0.5168 -1.162,-1.552 V 42.3 h -1.565 v 6.5352" /><path
       inkscape:connector-curvature="0"
       id="path62"
       style="fill:#ffffff;fill-opacity:1;fill-rule:nonzero;stroke:none;stroke-width:0.1"
       d="M 190.321,48.8352 V 42.3 h -1.565 v 6.5352 z m 0,2.7957 v -1.3055 h -1.565 v 1.3055 h 1.565" /><path
       inkscape:connector-curvature="0"
       id="path64"
       style="fill:#ffffff;fill-opacity:1;fill-rule:nonzero;stroke:none;stroke-width:0.1"
       d="m 191.746,48.8352 h 1.552 l -0.062,-1.1012 0.035,-0.0059 c 0.305,0.7879 0.989,1.1821 2.05,1.1821 1.545,0 2.318,-0.7204 2.318,-2.1602 V 42.3 h -1.566 v 3.9371 0.2461 l -0.034,0.4578 c -0.072,0.4879 -0.455,0.732 -1.148,0.732 -1.053,0 -1.579,-0.4992 -1.579,-1.4968 V 42.3 h -1.566 v 6.5352" /><path
       inkscape:connector-curvature="0"
       id="path66"
       style="fill:#ffffff;fill-opacity:1;fill-rule:nonzero;stroke:none;stroke-width:0.1"
       d="m 201.863,47.673 c -0.601,0 -0.988,-0.1218 -1.158,-0.3648 -0.172,-0.2453 -0.257,-0.7992 -0.257,-1.6652 0,-0.9211 0.085,-1.509 0.257,-1.7641 0.17,-0.2551 0.564,-0.3828 1.179,-0.3828 0.615,0 1.014,0.1309 1.196,0.3937 0.182,0.2614 0.274,0.8411 0.274,1.7391 0,0.8609 -0.092,1.4172 -0.274,1.668 -0.182,0.2511 -0.588,0.3761 -1.217,0.3761 z m 3.083,1.1622 V 42.177 c 0,-1.0668 -0.216,-1.7981 -0.645,-2.195 -0.432,-0.3961 -1.225,-0.5941 -2.383,-0.5941 -1.121,0 -1.871,0.15 -2.249,0.4512 -0.378,0.3007 -0.567,0.8949 -0.567,1.7839 h 1.517 c 0,-0.4242 0.08,-0.696 0.239,-0.8171 0.16,-0.12 0.515,-0.1809 1.067,-0.1809 0.971,0 1.456,0.4012 1.456,1.2031 v 1.4699 l -0.034,0.0071 c -0.279,-0.6981 -0.916,-1.0461 -1.914,-1.0461 -0.99,0 -1.665,0.239 -2.027,0.718 -0.363,0.4781 -0.544,1.3718 -0.544,2.6789 0,1.2312 0.181,2.08 0.544,2.55 0.362,0.4703 1.02,0.7043 1.972,0.7043 1.039,0 1.72,-0.3852 2.044,-1.1551 h 0.034 l -0.075,1.0801 h 1.565" /></g></svg>