<?xml version="1.0" encoding="UTF-8" standalone="no"?>
<!-- Created with Inkscape (http://www.inkscape.org/) -->

<svg
   xmlns:dc="http://purl.org/dc/elements/1.1/"
   xmlns:cc="http://creativecommons.org/ns#"
   xmlns:rdf="http://www.w3.org/1999/02/22-rdf-syntax-ns#"
   xmlns:svg="http://www.w3.org/2000/svg"
   xmlns="http://www.w3.org/2000/svg"
   xmlns:xlink="http://www.w3.org/1999/xlink"
   xmlns:sodipodi="http://sodipodi.sourceforge.net/DTD/sodipodi-0.dtd"
   xmlns:inkscape="http://www.inkscape.org/namespaces/inkscape"
   width="158.1545mm"
   height="35.089539mm"
   viewBox="0 0 158.15449 35.089539"
   version="1.1"
   id="svg8"
   inkscape:version="0.92.2 2405546, 2018-03-11"
   sodipodi:docname="gramcnc.svg">
  <sodipodi:namedview
     id="base"
     pagecolor="#ffffff"
     bordercolor="#666666"
     borderopacity="1.0"
     inkscape:pageopacity="0.0"
     inkscape:pageshadow="2"
     inkscape:zoom="0.49497475"
     inkscape:cx="-93.243342"
     inkscape:cy="153.76209"
     inkscape:document-units="mm"
     inkscape:current-layer="layer1"
     showgrid="false"
     inkscape:window-width="1920"
     inkscape:window-height="983"
     inkscape:window-x="0"
     inkscape:window-y="27"
     inkscape:window-maximized="1"
     fit-margin-top="0"
     fit-margin-left="0"
     fit-margin-right="0"
     fit-margin-bottom="0" />
  <defs
     id="defs2">
    <defs
       id="defs868">
      <g
         id="g866">
        <symbol
           style="overflow:visible"
           overflow="visible"
           id="textext-36655f44-0">
          <path
             inkscape:connector-curvature="0"
             style="stroke:none"
             d=""
             id="path818" />
        </symbol>
        <symbol
           style="overflow:visible"
           overflow="visible"
           id="textext-36655f44-1">
          <path
             inkscape:connector-curvature="0"
             style="stroke:none"
             d="M 6.515625,-0.53125 C 6.8125,-0.265625 7.421875,0 7.484375,0 7.625,0 7.625,-0.125 7.625,-0.28125 v -2 H 8.421875 V -2.75 c -0.34375,0.03125 -1.21875,0.03125 -1.609375,0.03125 -0.578125,0 -1.5,0 -2.03125,-0.03125 v 0.46875 h 1.421875 v 1 c 0,0.1875 0,0.484375 -0.375,0.71875 C 5.5625,-0.421875 5.25,-0.359375 4.921875,-0.359375 c -0.859375,0 -1.71875,-0.28125 -2.203125,-0.90625 -0.421875,-0.546875 -0.5625,-1.25 -0.5625,-2.15625 0,-1.125 0.203125,-1.703125 0.578125,-2.1875 0.390625,-0.5 1.15625,-0.875 2.125,-0.875 1.0625,0 2.015625,0.765625 2.234375,2.03125 C 7.125,-4.265625 7.125,-4.25 7.359375,-4.25 c 0.25,0 0.265625,-0.015625 0.265625,-0.28125 v -2.140625 c 0,-0.1875 0,-0.28125 -0.171875,-0.28125 -0.09375,0 -0.109375,0.03125 -0.203125,0.09375 l -0.65625,0.59375 c -0.71875,-0.578125 -1.4375,-0.6875 -1.953125,-0.6875 -2.453125,0 -4,1.46875 -4,3.53125 0,1.984375 1.4375,3.53125 4.015625,3.53125 0.328125,0 1.359375,-0.015625 1.859375,-0.640625 z m 0,0"
             id="path821" />
        </symbol>
        <symbol
           style="overflow:visible"
           overflow="visible"
           id="textext-36655f44-2">
          <path
             inkscape:connector-curvature="0"
             style="stroke:none"
             d="m 2.03125,-3.359375 v -1.125 L 0.375,-4.40625 v 0.46875 c 0.609375,0 0.6875,0 0.6875,0.390625 V -0.46875 H 0.375 V 0 c 0.34375,-0.015625 0.796875,-0.03125 1.25,-0.03125 0.375,0 1.015625,0 1.375,0.03125 V -0.46875 H 2.140625 v -1.75 c 0,-0.6875 0.234375,-1.90625 1.234375,-1.90625 0,0.015625 -0.1875,0.171875 -0.1875,0.453125 0,0.40625 0.328125,0.609375 0.609375,0.609375 0.296875,0 0.609375,-0.203125 0.609375,-0.609375 0,-0.53125 -0.53125,-0.8125 -1.0625,-0.8125 -0.6875,0 -1.09375,0.5 -1.3125,1.125 z m 0,0"
             id="path824" />
        </symbol>
        <symbol
           style="overflow:visible"
           overflow="visible"
           id="textext-36655f44-3">
          <path
             inkscape:connector-curvature="0"
             style="stroke:none"
             d="m 3.734375,-0.765625 c 0,0.3125 0,0.765625 1.03125,0.765625 H 5.25 C 5.4375,0 5.5625,0 5.5625,-0.234375 5.5625,-0.46875 5.4375,-0.46875 5.296875,-0.46875 4.6875,-0.484375 4.6875,-0.609375 4.6875,-0.84375 v -2.140625 c 0,-0.890625 -0.703125,-1.53125 -2.1875,-1.53125 -0.5625,0 -1.78125,0.046875 -1.78125,0.921875 0,0.4375 0.34375,0.625 0.609375,0.625 0.3125,0 0.640625,-0.21875 0.640625,-0.625 0,-0.296875 -0.1875,-0.46875 -0.21875,-0.5 0.28125,-0.046875 0.59375,-0.0625 0.71875,-0.0625 0.734375,0 1.09375,0.421875 1.09375,1.171875 v 0.34375 c -0.71875,0.03125 -3.25,0.125 -3.25,1.5625 0,0.953125 1.25,1.140625 1.9375,1.140625 0.796875,0 1.265625,-0.40625 1.484375,-0.828125 z M 3.5625,-2.328125 v 0.9375 c 0,0.96875 -0.921875,1.09375 -1.171875,1.09375 -0.5,0 -0.90625,-0.34375 -0.90625,-0.796875 0,-1.0625 1.578125,-1.203125 2.078125,-1.234375 z m 0,0"
             id="path827" />
        </symbol>
        <symbol
           style="overflow:visible"
           overflow="visible"
           id="textext-36655f44-4">
          <path
             inkscape:connector-curvature="0"
             style="stroke:none"
             d="m 1.140625,-3.546875 v 3.078125 h -0.6875 V 0 c 0.28125,-0.015625 0.875,-0.03125 1.25,-0.03125 0.390625,0 0.984375,0.015625 1.25,0.03125 v -0.46875 h -0.6875 v -2.078125 c 0,-1.09375 0.875,-1.578125 1.5,-1.578125 0.328125,0 0.546875,0.203125 0.546875,0.96875 v 2.6875 H 3.625 V 0 c 0.28125,-0.015625 0.875,-0.03125 1.265625,-0.03125 0.390625,0 0.96875,0.015625 1.25,0.03125 v -0.46875 h -0.6875 V -2.546875 C 5.453125,-3.640625 6.3125,-4.125 6.9375,-4.125 7.28125,-4.125 7.5,-3.921875 7.5,-3.15625 v 2.6875 H 6.8125 V 0 c 0.28125,-0.015625 0.875,-0.03125 1.25,-0.03125 0.390625,0 0.984375,0.015625 1.265625,0.03125 v -0.46875 h -0.6875 v -2.578125 c 0,-1.03125 -0.515625,-1.4375 -1.546875,-1.4375 -0.90625,0 -1.421875,0.5 -1.6875,0.953125 -0.1875,-0.921875 -1.109375,-0.953125 -1.484375,-0.953125 -0.875,0 -1.4375,0.453125 -1.765625,1.078125 V -4.484375 L 0.453125,-4.40625 v 0.46875 c 0.609375,0 0.6875,0 0.6875,0.390625 z m 0,0"
             id="path830" />
        </symbol>
        <symbol
           style="overflow:visible"
           overflow="visible"
           id="textext-36655f44-5">
          <path
             inkscape:connector-curvature="0"
             style="stroke:none"
             d="m 7.640625,-6.671875 c 0,-0.1875 0,-0.28125 -0.1875,-0.28125 -0.09375,0 -0.109375,0.03125 -0.1875,0.09375 l -0.65625,0.59375 c -0.625,-0.5 -1.28125,-0.6875 -1.96875,-0.6875 -2.484375,0 -4,1.484375 -4,3.53125 0,2.046875 1.515625,3.53125 4,3.53125 1.875,0 3,-1.21875 3,-2.375 0,-0.203125 -0.078125,-0.203125 -0.25,-0.203125 -0.125,0 -0.21875,0 -0.21875,0.171875 -0.078125,1.328125 -1.28125,1.9375 -2.28125,1.9375 -0.78125,0 -1.625,-0.234375 -2.140625,-0.84375 -0.46875,-0.578125 -0.59375,-1.3125 -0.59375,-2.21875 0,-0.5625 0.03125,-1.625 0.671875,-2.296875 0.640625,-0.65625 1.515625,-0.765625 2.03125,-0.765625 1.078125,0 2.015625,0.765625 2.234375,2.03125 C 7.125,-4.265625 7.140625,-4.25 7.359375,-4.25 c 0.265625,0 0.28125,-0.015625 0.28125,-0.28125 z m 0,0"
             id="path833" />
        </symbol>
        <symbol
           style="overflow:visible"
           overflow="visible"
           id="textext-36655f44-6">
          <path
             inkscape:connector-curvature="0"
             style="stroke:none"
             d="M 3,-6.703125 C 2.890625,-6.828125 2.875,-6.84375 2.671875,-6.84375 H 0.390625 V -6.375 H 1.46875 v 5.625 c 0,0.21875 -0.015625,0.21875 -0.296875,0.25 -0.234375,0.03125 -0.25,0.03125 -0.53125,0.03125 h -0.25 V 0 c 0.375,-0.03125 0.9375,-0.03125 1.328125,-0.03125 0.421875,0 0.9375,0 1.359375,0.03125 v -0.46875 h -0.25 C 2.640625,-0.46875 2.46875,-0.484375 2.296875,-0.5 2,-0.53125 2,-0.53125 2,-0.75 V -5.96875 L 6.953125,-0.125 C 7.0625,-0.015625 7.0625,0 7.234375,0 7.5,0 7.5,-0.09375 7.5,-0.3125 V -6.078125 C 7.5,-6.296875 7.5,-6.3125 7.78125,-6.34375 8.03125,-6.375 8.046875,-6.375 8.328125,-6.375 h 0.25 V -6.84375 C 8.1875,-6.8125 7.625,-6.8125 7.234375,-6.8125 c -0.421875,0 -0.9375,0 -1.34375,-0.03125 V -6.375 h 0.25 c 0.171875,0 0.34375,0.015625 0.53125,0.03125 0.28125,0.03125 0.296875,0.046875 0.296875,0.265625 v 4.03125 z m 0,0"
             id="path836" />
        </symbol>
        <symbol
           style="overflow:visible"
           overflow="visible"
           id="textext-36655f44-7">
          <path
             inkscape:connector-curvature="0"
             style="stroke:none"
             d=""
             id="path839" />
        </symbol>
        <symbol
           style="overflow:visible"
           overflow="visible"
           id="textext-36655f44-8">
          <path
             inkscape:connector-curvature="0"
             style="stroke:none"
             d="m 0.5625,-3.40625 c 0,2.0625 1.609375,3.625 3.46875,3.625 1.625,0 2.59375,-1.390625 2.59375,-2.546875 C 6.625,-2.421875 6.625,-2.5 6.5,-2.5 6.390625,-2.5 6.390625,-2.4375 6.375,-2.328125 6.296875,-0.90625 5.234375,-0.09375 4.140625,-0.09375 c -0.609375,0 -2.5625,-0.328125 -2.5625,-3.3125 0,-2.96875 1.953125,-3.3125 2.5625,-3.3125 1.078125,0 1.96875,0.90625 2.171875,2.359375 C 6.328125,-4.21875 6.328125,-4.1875 6.46875,-4.1875 6.625,-4.1875 6.625,-4.21875 6.625,-4.421875 V -6.78125 c 0,-0.171875 0,-0.25 -0.109375,-0.25 -0.03125,0 -0.078125,0 -0.15625,0.125 l -0.5,0.734375 C 5.5,-6.53125 4.984375,-7.03125 4.03125,-7.03125 c -1.875,0 -3.46875,1.59375 -3.46875,3.625 z m 0,0"
             id="path842" />
        </symbol>
        <symbol
           style="overflow:visible"
           overflow="visible"
           id="textext-36655f44-9">
          <path
             inkscape:connector-curvature="0"
             style="stroke:none"
             d="M 2.3125,-6.671875 C 2.21875,-6.796875 2.21875,-6.8125 2.03125,-6.8125 H 0.328125 V -6.5 H 0.625 c 0.140625,0 0.34375,0.015625 0.484375,0.015625 0.234375,0.03125 0.25,0.046875 0.25,0.234375 v 5.203125 c 0,0.265625 0,0.734375 -1.03125,0.734375 V 0 C 0.671875,-0.015625 1.171875,-0.03125 1.5,-0.03125 c 0.328125,0 0.8125,0.015625 1.15625,0.03125 v -0.3125 c -1.015625,0 -1.015625,-0.46875 -1.015625,-0.734375 v -5.1875 c 0.046875,0.046875 0.046875,0.0625 0.09375,0.125 L 5.796875,-0.125 C 5.890625,-0.015625 5.90625,0 5.96875,0 6.109375,0 6.109375,-0.0625 6.109375,-0.265625 v -5.5 c 0,-0.265625 0,-0.734375 1.03125,-0.734375 v -0.3125 c -0.359375,0.015625 -0.84375,0.03125 -1.171875,0.03125 -0.328125,0 -0.8125,-0.015625 -1.15625,-0.03125 V -6.5 c 1.015625,0 1.015625,0.46875 1.015625,0.734375 V -1.5 Z m 0,0"
             id="path845" />
        </symbol>
        <symbol
           style="overflow:visible"
           overflow="visible"
           id="textext-36655f44-10">
          <path
             inkscape:connector-curvature="0"
             style="stroke:none"
             d="m 1.75,-4.296875 v -1.15625 c 0,-0.875 0.46875,-1.359375 0.90625,-1.359375 0.03125,0 0.1875,0 0.328125,0.078125 C 2.875,-6.703125 2.6875,-6.5625 2.6875,-6.3125 c 0,0.21875 0.15625,0.421875 0.4375,0.421875 0.28125,0 0.4375,-0.203125 0.4375,-0.4375 0,-0.375 -0.375,-0.703125 -0.90625,-0.703125 -0.6875,0 -1.546875,0.53125 -1.546875,1.59375 v 1.140625 h -0.78125 v 0.3125 h 0.78125 V -0.75 C 1.109375,-0.3125 1,-0.3125 0.34375,-0.3125 V 0 c 0.390625,-0.015625 0.859375,-0.03125 1.125,-0.03125 0.40625,0 0.875,0 1.265625,0.03125 V -0.3125 H 2.53125 c -0.734375,0 -0.75,-0.109375 -0.75,-0.46875 v -3.203125 h 1.125 v -0.3125 z m 0,0"
             id="path848" />
        </symbol>
        <symbol
           style="overflow:visible"
           overflow="visible"
           id="textext-36655f44-11">
          <path
             inkscape:connector-curvature="0"
             style="stroke:none"
             d="M 1.671875,-3.3125 V -4.40625 L 0.28125,-4.296875 v 0.3125 c 0.703125,0 0.78125,0.0625 0.78125,0.5625 V -0.75 c 0,0.4375 -0.109375,0.4375 -0.78125,0.4375 V 0 c 0.390625,-0.015625 0.859375,-0.03125 1.140625,-0.03125 0.390625,0 0.859375,0 1.265625,0.03125 V -0.3125 H 2.46875 c -0.734375,0 -0.75,-0.109375 -0.75,-0.46875 V -2.3125 c 0,-0.984375 0.421875,-1.875 1.171875,-1.875 0.0625,0 0.09375,0 0.109375,0.015625 -0.03125,0 -0.234375,0.125 -0.234375,0.390625 0,0.265625 0.21875,0.421875 0.4375,0.421875 0.171875,0 0.421875,-0.125 0.421875,-0.4375 0,-0.3125 -0.3125,-0.609375 -0.734375,-0.609375 -0.734375,0 -1.09375,0.671875 -1.21875,1.09375 z m 0,0"
             id="path851" />
        </symbol>
        <symbol
           style="overflow:visible"
           overflow="visible"
           id="textext-36655f44-12">
          <path
             inkscape:connector-curvature="0"
             style="stroke:none"
             d="M 1.109375,-2.515625 C 1.171875,-4 2.015625,-4.25 2.359375,-4.25 c 1.015625,0 1.125,1.34375 1.125,1.734375 z m 0,0.21875 h 2.78125 c 0.21875,0 0.25,0 0.25,-0.21875 0,-0.984375 -0.546875,-1.953125 -1.78125,-1.953125 -1.15625,0 -2.078125,1.03125 -2.078125,2.28125 0,1.328125 1.046875,2.296875 2.1875,2.296875 C 3.6875,0.109375 4.140625,-1 4.140625,-1.1875 4.140625,-1.28125 4.0625,-1.3125 4,-1.3125 c -0.078125,0 -0.109375,0.0625 -0.125,0.140625 -0.34375,1.03125 -1.25,1.03125 -1.34375,1.03125 -0.5,0 -0.890625,-0.296875 -1.125,-0.671875 -0.296875,-0.46875 -0.296875,-1.125 -0.296875,-1.484375 z m 0,0"
             id="path854" />
        </symbol>
        <symbol
           style="overflow:visible"
           overflow="visible"
           id="textext-36655f44-13">
          <path
             inkscape:connector-curvature="0"
             style="stroke:none"
             d="m 2.078125,-1.9375 c 0.21875,0.046875 1.03125,0.203125 1.03125,0.921875 0,0.5 -0.34375,0.90625 -1.125,0.90625 -0.84375,0 -1.203125,-0.5625 -1.390625,-1.421875 C 0.5625,-1.65625 0.5625,-1.6875 0.453125,-1.6875 c -0.125,0 -0.125,0.0625 -0.125,0.234375 V -0.125 c 0,0.171875 0,0.234375 0.109375,0.234375 0.046875,0 0.0625,-0.015625 0.25,-0.203125 0.015625,-0.015625 0.015625,-0.03125 0.203125,-0.21875 0.4375,0.40625 0.890625,0.421875 1.09375,0.421875 1.140625,0 1.609375,-0.671875 1.609375,-1.390625 0,-0.515625 -0.296875,-0.828125 -0.421875,-0.9375 C 2.84375,-2.546875 2.453125,-2.625 2.03125,-2.703125 1.46875,-2.8125 0.8125,-2.9375 0.8125,-3.515625 c 0,-0.359375 0.25,-0.765625 1.109375,-0.765625 1.09375,0 1.15625,0.90625 1.171875,1.203125 0,0.09375 0.09375,0.09375 0.109375,0.09375 0.140625,0 0.140625,-0.046875 0.140625,-0.234375 v -1.015625 c 0,-0.15625 0,-0.234375 -0.109375,-0.234375 -0.046875,0 -0.078125,0 -0.203125,0.125 -0.03125,0.03125 -0.125,0.125 -0.171875,0.15625 -0.375,-0.28125 -0.78125,-0.28125 -0.9375,-0.28125 -1.21875,0 -1.59375,0.671875 -1.59375,1.234375 0,0.34375 0.15625,0.625 0.421875,0.84375 0.328125,0.25 0.609375,0.3125 1.328125,0.453125 z m 0,0"
             id="path857" />
        </symbol>
        <symbol
           style="overflow:visible"
           overflow="visible"
           id="textext-36655f44-14">
          <path
             inkscape:connector-curvature="0"
             style="stroke:none"
             d="m 6.171875,-3.34375 c 0.171875,-0.5 0.484375,-0.640625 0.84375,-0.640625 v -0.3125 C 6.78125,-4.28125 6.5,-4.265625 6.28125,-4.265625 c -0.296875,0 -0.734375,-0.015625 -0.921875,-0.03125 v 0.3125 c 0.359375,0 0.578125,0.1875 0.578125,0.46875 0,0.0625 0,0.09375 -0.0625,0.21875 L 4.96875,-0.75 3.984375,-3.53125 C 3.953125,-3.65625 3.9375,-3.671875 3.9375,-3.71875 c 0,-0.265625 0.390625,-0.265625 0.59375,-0.265625 v -0.3125 c -0.296875,0.015625 -0.796875,0.03125 -1.046875,0.03125 -0.296875,0 -0.578125,-0.015625 -0.875,-0.03125 v 0.3125 c 0.359375,0 0.515625,0.015625 0.625,0.140625 0.046875,0.0625 0.15625,0.359375 0.21875,0.546875 L 2.609375,-0.875 1.65625,-3.53125 C 1.609375,-3.65625 1.609375,-3.671875 1.609375,-3.71875 1.609375,-3.984375 2,-3.984375 2.1875,-3.984375 v -0.3125 c -0.296875,0.015625 -0.859375,0.03125 -1.078125,0.03125 -0.046875,0 -0.578125,-0.015625 -0.9375,-0.03125 v 0.3125 c 0.5,0 0.625,0.03125 0.75,0.34375 l 1.25,3.53125 C 2.21875,0.03125 2.25,0.109375 2.375,0.109375 c 0.140625,0 0.15625,-0.0625 0.203125,-0.203125 l 1.015625,-2.8125 1.015625,2.828125 c 0.03125,0.109375 0.0625,0.1875 0.203125,0.1875 0.125,0 0.15625,-0.09375 0.1875,-0.1875 z m 0,0"
             id="path860" />
        </symbol>
        <symbol
           style="overflow:visible"
           overflow="visible"
           id="textext-36655f44-15">
          <path
             inkscape:connector-curvature="0"
             style="stroke:none"
             d="m 1.0625,-0.75 c 0,0.4375 -0.109375,0.4375 -0.78125,0.4375 V 0 c 0.328125,-0.015625 0.796875,-0.03125 1.078125,-0.03125 0.3125,0 0.703125,0.015625 1.109375,0.03125 v -0.3125 c -0.671875,0 -0.78125,0 -0.78125,-0.4375 v -1.03125 l 0.640625,-0.546875 c 0.765625,1.046875 1.1875,1.609375 1.1875,1.796875 0,0.1875 -0.171875,0.21875 -0.359375,0.21875 V 0 c 0.265625,-0.015625 0.859375,-0.03125 1.078125,-0.03125 0.28125,0 0.578125,0.015625 0.859375,0.03125 v -0.3125 c -0.375,0 -0.59375,0 -0.96875,-0.53125 L 2.859375,-2.625 c -0.015625,-0.015625 -0.0625,-0.078125 -0.0625,-0.109375 0,-0.03125 0.71875,-0.640625 0.8125,-0.71875 0.625,-0.5 1.046875,-0.53125 1.25,-0.53125 v -0.3125 c -0.28125,0.03125 -0.40625,0.03125 -0.6875,0.03125 -0.359375,0 -0.984375,-0.015625 -1.125,-0.03125 v 0.3125 c 0.1875,0 0.296875,0.109375 0.296875,0.25 0,0.203125 -0.140625,0.3125 -0.21875,0.390625 l -1.40625,1.203125 v -4.78125 L 0.28125,-6.8125 V -6.5 c 0.703125,0 0.78125,0.0625 0.78125,0.5625 z m 0,0"
             id="path863" />
        </symbol>
      </g>
    </defs>
  </defs>
  <metadata
     id="metadata5">
    <rdf:RDF>
      <cc:Work
         rdf:about="">
        <dc:format>image/svg+xml</dc:format>
        <dc:type
           rdf:resource="http://purl.org/dc/dcmitype/StillImage" />
        <dc:title></dc:title>
      </cc:Work>
    </rdf:RDF>
  </metadata>
  <g
     id="layer1"
     inkscape:groupmode="layer"
     inkscape:label="Layer 1"
     transform="translate(-27.992353,-100.58552)">
    <g
       id="g1116">
      <g
         id="g1089">
        <g
           id="g884"
           style="fill:#000000;fill-opacity:1"
           transform="matrix(2.0282302,0,0,2.0282302,-694.67077,-158.64638)">
          <use
             id="use870"
             y="134.765"
             x="368.108"
             xlink:href="#textext-36655f44-1"
             width="100%"
             height="100%" />
          <use
             id="use872"
             y="134.765"
             x="377.11618"
             xlink:href="#textext-36655f44-2"
             width="100%"
             height="100%" />
          <use
             id="use874"
             y="134.765"
             x="381.83447"
             xlink:href="#textext-36655f44-3"
             width="100%"
             height="100%" />
          <use
             id="use876"
             y="134.765"
             x="387.40356"
             xlink:href="#textext-36655f44-4"
             width="100%"
             height="100%" />
          <use
             id="use878"
             y="134.765"
             x="396.95071"
             xlink:href="#textext-36655f44-5"
             width="100%"
             height="100%" />
          <use
             id="use880"
             y="134.765"
             x="405.22565"
             xlink:href="#textext-36655f44-6"
             width="100%"
             height="100%" />
          <use
             id="use882"
             y="134.765"
             x="414.19199"
             xlink:href="#textext-36655f44-5"
             width="100%"
             height="100%" />
        </g>
      </g>
      <g
         transform="matrix(0.74295498,0,0,0.74295498,27.223992,32.122566)"
         id="g1079">
        <g
           id="g892"
           style="fill:#000000;fill-opacity:1"
           transform="matrix(2.0282302,0,0,2.0282302,-694.67077,-158.64638)">
          <use
             id="use886"
             y="146.72"
             x="362.577"
             xlink:href="#textext-36655f44-8"
             width="100%"
             height="100%" />
          <use
             id="use888"
             y="146.72"
             x="369.772"
             xlink:href="#textext-36655f44-9"
             width="100%"
             height="100%" />
          <use
             id="use890"
             y="146.72"
             x="377.24393"
             xlink:href="#textext-36655f44-8"
             width="100%"
             height="100%" />
        </g>
        <g
           id="g906"
           style="fill:#000000;fill-opacity:1"
           transform="matrix(2.0282302,0,0,2.0282302,-694.67077,-158.64638)">
          <use
             id="use894"
             y="146.72"
             x="387.75647"
             xlink:href="#textext-36655f44-10"
             width="100%"
             height="100%" />
          <use
             id="use896"
             y="146.72"
             x="390.80106"
             xlink:href="#textext-36655f44-11"
             width="100%"
             height="100%" />
          <use
             id="use898"
             y="146.72"
             x="394.7034"
             xlink:href="#textext-36655f44-12"
             width="100%"
             height="100%" />
          <use
             id="use900"
             y="146.72"
             x="399.13077"
             xlink:href="#textext-36655f44-12"
             width="100%"
             height="100%" />
          <use
             id="use902"
             y="146.72"
             x="403.55817"
             xlink:href="#textext-36655f44-13"
             width="100%"
             height="100%" />
          <use
             id="use904"
             y="146.72"
             x="407.4874"
             xlink:href="#textext-36655f44-14"
             width="100%"
             height="100%" />
        </g>
        <g
           id="g914"
           style="fill:#000000;fill-opacity:1"
           transform="matrix(2.0282302,0,0,2.0282302,-694.67077,-158.64638)">
          <use
             id="use908"
             y="146.72"
             x="414.41339"
             xlink:href="#textext-36655f44-12"
             width="100%"
             height="100%" />
          <use
             id="use910"
             y="146.72"
             x="418.84079"
             xlink:href="#textext-36655f44-11"
             width="100%"
             height="100%" />
          <use
             id="use912"
             y="146.72"
             x="422.74313"
             xlink:href="#textext-36655f44-15"
             width="100%"
             height="100%" />
        </g>
      </g>
    </g>
    <path
       style="fill:none;stroke:#000000;stroke-width:0.26458332px;stroke-linecap:butt;stroke-linejoin:miter;stroke-opacity:1"
       d="M 49.908454,119.63888 H 166.43797"
       id="path1120"
       inkscape:connector-curvature="0" />
  </g>
</svg>
